<?xml version="1.0" encoding="UTF-8"?>
<svg xmlns="http://www.w3.org/2000/svg" width="1280" height="720" viewBox="0 0 640 360" role="img" aria-label="Kia Sonet">
  <defs>
    <linearGradient id="bg" x1="0" y1="0" x2="1" y2="1">
      <stop offset="0%" stop-color="#5B21B6"/>
      <stop offset="100%" stop-color="#020617"/>
    </linearGradient>
    <linearGradient id="paint" x1="0" y1="0" x2="0.2" y2="1">
      <stop offset="0%" stop-color="#C4B5FD"/>
      <stop offset="100%" stop-color="#5B21B6"/>
    </linearGradient>
  </defs>
  <rect width="640" height="360" fill="url(#bg)"/>
  <ellipse cx="500" cy="60" rx="120" ry="80" fill="#C4B5FD" opacity="0.14"/>
  <text x="32" y="44" fill="#fff" fill-opacity="0.6" font-family="system-ui,sans-serif" font-size="16" font-weight="700" letter-spacing="3">KIA</text>
  
  <path d="M55 240 L95 240 C115 175 155 135 220 125 L470 120 C520 120 550 155 565 200 L590 240 L610 240 C617 240 622 248 622 256 L622 280 L50 280 L50 256 C50 248 52 240 55 240 Z M220 125 L470 120 L470 240 L220 240 Z" fill="url(#paint)" stroke="#fff" stroke-opacity="0.28" stroke-width="2"/>
  <circle cx="175" cy="280" r="30" fill="#0B1220" stroke="#E5E7EB" stroke-width="5"/>
  <circle cx="175" cy="280" r="11" fill="#9CA3AF"/>
  <circle cx="505" cy="280" r="30" fill="#0B1220" stroke="#E5E7EB" stroke-width="5"/>
  <circle cx="505" cy="280" r="11" fill="#9CA3AF"/>
  <rect x="255" y="155" width="95" height="48" rx="8" fill="#020617" opacity="0.35"/>
  <rect x="365" y="155" width="72" height="48" rx="8" fill="#020617" opacity="0.28"/>
  <text x="32" y="332" fill="#fff" font-family="Georgia,serif" font-size="40" font-weight="700">Sonet</text>
  <text x="608" y="332" text-anchor="end" fill="#C4B5FD" font-family="system-ui,sans-serif" font-size="15" font-weight="700">SUV</text>
</svg>